PathFileType	4	(X/Y/Z)	TVC_20_BWA2_walk_RCNL2025.trc
DataRate	CameraRate	NumFrames	NumMarkers	Units	OrigDataRate	OrigDataStartFrame	OrigNumFrames
100	100	5	27	mm	100	166	221
Frame#	Time	R_Shoulder			L_Shoulder			C7			J_Notch			R_Elbow			L_Elbow			R_Wrist			L_Wrist			R_Asis			L_Asis			R_Psis			L_Psis			Sacral			Thoracic			Sternum			R_Thigh_Lateral			R_Knee_Lateral			R_Shank_Lateral			R_Ankle_Lateral			R_Heel			R_Toe			L_Thigh_Lateral			L_Knee_Lateral			L_Shank_Lateral			L_Ankle_Lateral			L_Heel			L_Toe		
		X1	Y1	Z1	X2	Y2	Z2	X3	Y3	Z3	X4	Y4	Z4	X5	Y5	Z5	X6	Y6	Z6	X7	Y7	Z7	X8	Y8	Z8	X9	Y9	Z9	X10	Y10	Z10	X11	Y11	Z11	X12	Y12	Z12	X13	Y13	Z13	X14	Y14	Z14	X15	Y15	Z15	X16	Y16	Z16	X17	Y17	Z17	X18	Y18	Z18	X19	Y19	Z19	X20	Y20	Z20	X21	Y21	Z21	X22	Y22	Z22	X23	Y23	Z23	X24	Y24	Z24	X25	Y25	Z25	X26	Y26	Z26	X27	Y27	Z27
166	1.65000000	1505.104492	1363.366455	119.486832	1444.659424	1375.029663	-242.652695	1451.986816	1426.353271	-48.435474	1567.986816	1292.510010	-65.334038	1472.990601	1057.337891	233.632050	1358.904907	1069.248657	-325.993073	1661.406494	880.184174	196.959633	1459.748169	826.657288	-333.247116	1511.442505	965.939270	93.452309	1529.374390	972.376648	-185.213959	1365.730713	967.945068	-9.816593	1357.719360	955.887512	-100.956673	1361.725037	961.916290	-55.386633	1337.090332	1196.683716	-53.216747	1581.473755	1150.498535	-69.220924	1427.838745	641.914307	158.525726	1376.912231	441.968445	85.879646	1239.523315	321.414276	141.794037	1083.885498	150.544861	66.121933	1034.251587	168.667419	22.154314	1161.684692	34.165001	27.276394	1604.055542	631.793274	-254.575974	1685.221558	490.900848	-177.759918	1692.984741	305.745941	-233.056564	1693.155518	65.420433	-161.302521	1644.262695	54.154526	-120.321358	1830.598511	35.321564	-128.455063
167	1.66000000	1518.621216	1365.232788	117.862587	1458.645996	1376.282227	-244.404785	1465.577759	1428.055176	-50.266987	1581.868164	1294.481201	-66.848564	1484.318848	1058.873657	231.059311	1375.729858	1069.715088	-327.931396	1670.946716	879.298676	196.751213	1478.617310	827.990051	-334.931671	1525.965576	966.826538	91.846176	1543.766602	974.785034	-186.583344	1380.149536	968.891907	-10.754724	1372.251465	957.603638	-101.991585	1376.200500	963.247772	-56.373154	1351.089722	1197.898193	-54.579079	1595.796387	1152.487427	-70.678612	1447.739868	641.237915	157.236145	1400.300049	440.160828	85.726730	1259.446045	323.419495	141.574539	1097.502930	159.824036	66.741402	1049.018188	180.896912	22.557364	1166.715576	37.246540	27.638226	1617.741089	633.798279	-255.446045	1696.585327	491.206116	-178.066635	1701.860840	305.882629	-233.308670	1694.093384	65.413849	-161.153152	1644.692993	54.727200	-120.535690	1831.374390	33.160706	-127.578949
168	1.67000000	1531.925049	1367.378540	116.345657	1472.625977	1377.796265	-246.067047	1479.074829	1430.013794	-52.011894	1595.604370	1296.661377	-68.201500	1495.573853	1060.713379	228.615860	1392.558960	1070.503418	-329.934021	1680.254395	878.656464	196.537460	1497.768372	829.797821	-336.684845	1540.203247	967.941406	90.384003	1558.000977	977.425781	-187.843689	1394.344360	970.079468	-11.710958	1386.591431	959.581299	-103.015495	1390.467896	964.830383	-57.363226	1364.926392	1199.404663	-55.928902	1609.916504	1154.680420	-71.929405	1467.997437	640.646790	155.924835	1424.644775	438.505524	85.390739	1280.733154	325.526459	141.218750	1112.712036	169.424698	67.173637	1065.277466	193.152496	22.708990	1173.555298	41.091877	28.118702	1630.194580	635.542603	-256.412354	1706.790894	491.376709	-178.547989	1709.388550	305.944641	-233.779358	1694.700684	65.496643	-161.089233	1644.924194	55.212090	-120.795517	1831.906006	31.722980	-126.959473
169	1.68000000	1544.984009	1369.760864	114.954765	1486.588135	1379.538696	-247.629669	1492.464600	1432.193481	-53.658218	1609.182495	1299.014038	-69.375015	1506.745483	1062.814575	226.333969	1409.356323	1071.595337	-332.004578	1689.372375	878.273346	196.320412	1517.149902	832.062836	-338.493805	1554.154175	969.267578	89.075935	1572.066528	980.229492	-188.988647	1408.303589	971.508118	-12.696595	1400.722412	961.797974	-104.039360	1404.513000	966.653046	-58.367978	1378.591919	1201.167603	-57.271427	1623.824097	1157.043213	-72.952980	1488.456055	640.212097	154.608902	1449.785034	437.105927	84.881256	1303.265015	327.768311	140.735199	1129.491333	179.130264	67.414787	1082.955078	205.149368	22.627600	1182.499390	45.634102	28.696377	1641.380371	636.979553	-257.449921	1715.827148	491.398407	-179.192703	1715.555542	305.905029	-234.440826	1695.035889	65.622009	-161.088699	1645.001587	55.597179	-121.071274	1832.240356	30.885574	-126.563110
170	1.69000000	1557.781128	1372.333984	113.704048	1500.520386	1381.477539	-249.084534	1505.739624	1434.558105	-55.195221	1622.596558	1301.503906	-70.359398	1517.821289	1065.132568	224.241425	1426.095337	1072.969604	-334.143402	1698.343079	878.161194	196.107056	1536.708374	834.758850	-340.344818	1567.832397	970.791138	87.917603	1585.951050	983.129150	-190.022232	1422.025513	973.175659	-13.714984	1414.632202	964.227478	-105.067497	1418.328857	968.701569	-59.391241	1392.084473	1203.149658	-58.608051	1637.517090	1159.542725	-73.742912	1508.967285	640.009644	153.304642	1475.550171	436.068695	84.220863	1326.885986	330.179260	140.135162	1147.793823	188.683685	67.458733	1101.966431	216.583267	22.331097	1193.809570	50.740353	29.330345	1651.339966	638.101990	-258.531769	1723.726929	491.272949	-179.977753	1720.426270	305.757965	-235.257584	1695.156616	65.754013	-161.133865	1644.964233	55.884457	-121.343094	1832.417847	30.511168	-126.351074
